<?xml version="1.0" encoding="UTF-8" standalone="no"?>
<svg width="200" height="60" viewBox="0 0 200 60" xmlns="http://www.w3.org/2000/svg">
  <style>
    .logo-bg {
      fill: #3b82f6; /* Primary blue color */
    }
    .logo-text {
      font-family: 'Arial', sans-serif;
      font-weight: bold;
      fill: #ffffff;
    }
    .wolf-icon {
      fill: #ffffff;
    }
  </style>
  
  <!-- Background -->
  <rect class="logo-bg" width="200" height="60" rx="8" ry="8"/>
  
  <!-- Wolf Icon (stylized) -->
  <g class="wolf-icon" transform="translate(10, 5) scale(0.04)">
    <path d="M794.5,472.2c-32.9-34.4-82.8-38.9-117.1-4.8c-12.2,12.2-22.3,25.5-30.3,39.7c-7.9-14.2-18-27.5-30.3-39.7
      c-34.4-34.1-84.2-29.6-117.1,4.8c-32.9,34.4-34,89.4,0.3,123.5c32.3,32.1,78.3,42.7,119.4,27.9c9-3.2,17.7-7.5,25.9-12.9
      c8.7,5.7,17.6,10.1,26.9,13.4c41.1,14.8,87-0.9,119.4-32.9C828.5,561.6,827.4,506.6,794.5,472.2z M689.6,556.4
      c0,0-3.9-7.6-22.3-40.9l0,0c38.7-33.4,32.6-59.6,30.5-63.8l0,0c0,0,0,0,0,0c-2.8-5.5-9.5-7.7-15-4.9c-4.6,2.3-6.9,7.2-6.1,12
      c0,0,0,0.1,0,0.1v0.2c0,0,6,12.3-34.8,48l0,0c-23-34.7-27.6-41.8-27.6-41.8c0-9.7-14.9-10.7-15.4-0.9c0,0-1.6,22.7,33.7,64.8
      l0,0c-44.2,38.1-61.8,34.7-61.8,34.7c0,0-2.7,0.2-4.6-0.9c-1.9-1.2-3.4-3.9-3.4-3.9c-8.6-13-25-8.3-27.6,5.8c0,0-4.4,23.2,20.3,35
      c0,0,10.7,5.1,22.1,4.9c11.4-0.2,23.6-5.8,23.6-5.8c40.9-17.2,59.2-38.4,67.9-51.5c8.7,13.2,27,34.3,67.9,51.5
      c0,0,12.1,5.5,23.6,5.8c11.4,0.2,22.1-4.9,22.1-4.9c24.8-11.8,20.3-35,20.3-35c-2.5-14.1-19-18.8-27.6-5.8c0,0-1.5,2.7-3.4,3.9
      C701.6,560.4,689.6,556.4,689.6,556.4z"/>
  </g>
  
  <!-- Text "WOLF AUTO MARKETER" -->
  <text x="55" y="30" class="logo-text" font-size="16">WOLF AUTO</text>
  <text x="55" y="48" class="logo-text" font-size="16">MARKETER</text>
</svg>